<svg xmlns="http://www.w3.org/2000/svg" width="58" height="58" viewBox="0 0 58 58" fill="none">
<circle cx="29" cy="29" r="29" fill="#74D680"/>
<path d="M26.6855 36.4619C26.6855 35.8174 26.9443 35.2412 27.4619 34.7334C27.9893 34.2256 28.5703 33.9717 29.2051 33.9717C29.8398 33.9717 30.3574 34.1621 30.7578 34.543C31.168 34.9238 31.373 35.4512 31.373 36.125C31.373 36.7988 31.0752 37.4238 30.4795 38C30.0303 38.3906 29.498 38.5859 28.8828 38.5859C28.2676 38.5859 27.7451 38.3906 27.3154 38C26.8955 37.6191 26.6855 37.1064 26.6855 36.4619ZM30.6406 31.8184C30.084 32.0625 29.5371 32.1846 29 32.1846C28.4727 32.1846 27.9551 32.1211 27.4473 31.9941C27.4473 31.9648 27.4229 31.7793 27.374 31.4375C27.3252 31.0859 27.2812 30.7393 27.2422 30.3975C27.2031 30.0557 27.1543 29.5771 27.0957 28.9619C27.0371 28.3467 26.9834 27.6436 26.9346 26.8525C26.8857 26.0615 26.8369 25.1582 26.7881 24.1426C26.6904 22.1602 26.6221 19.4893 26.583 16.1299C27.6768 15.9443 28.6191 15.8516 29.4102 15.8516C30.2109 15.8516 30.8604 15.9443 31.3584 16.1299C30.9287 21.6865 30.6895 26.916 30.6406 31.8184Z" fill="white"/>
</svg>